<svg xmlns="http://www.w3.org/2000/svg" viewBox="0 0 62.69 46.13"><defs><style>.cls-1{fill:#dadadb;}.cls-2{fill:#585964;}.cls-3{fill:#f5ead4;}.cls-4{fill:#bf2430;}.cls-5{fill:#c8c7c9;}.cls-6{fill:#343643;}</style></defs><title>Asset 4</title><g id="Layer_2" data-name="Layer 2"><g id="Layer_1-2" data-name="Layer 1"><rect class="cls-1" x="40.2" y="6" width="20.8" height="29.25"/><path class="cls-2" d="M60.7,15.42H40.51a1.85,1.85,0,0,1-2-1.66V10a1.85,1.85,0,0,1,2-1.66H60.7a1.84,1.84,0,0,1,2,1.66v3.75A1.84,1.84,0,0,1,60.7,15.42Z"/><path class="cls-2" d="M60.7,24.18H40.51a1.85,1.85,0,0,1-2-1.65V18.78a1.85,1.85,0,0,1,2-1.66H60.7a1.84,1.84,0,0,1,2,1.66v3.75A1.84,1.84,0,0,1,60.7,24.18Z"/><path class="cls-2" d="M60.7,33H40.51a1.85,1.85,0,0,1-2-1.65V27.54a1.85,1.85,0,0,1,2-1.65H60.7a1.84,1.84,0,0,1,2,1.65V31.3A1.84,1.84,0,0,1,60.7,33Z"/><path class="cls-3" d="M57,11.21a.88.88,0,1,1-.88-.87A.87.87,0,0,1,57,11.21Z"/><path class="cls-4" d="M59.58,11.21a.88.88,0,1,1-.88-.87A.87.87,0,0,1,59.58,11.21Z"/><path class="cls-3" d="M57,19.38a.88.88,0,1,1-.88-.88A.88.88,0,0,1,57,19.38Z"/><path class="cls-4" d="M59.58,19.38a.88.88,0,1,1-.88-.88A.88.88,0,0,1,59.58,19.38Z"/><path class="cls-3" d="M57,27.55a.88.88,0,1,1-.88-.88A.87.87,0,0,1,57,27.55Z"/><path class="cls-4" d="M59.58,27.55a.88.88,0,1,1-.88-.88A.87.87,0,0,1,59.58,27.55Z"/><rect class="cls-1" x="39.83" y="5.6" width="20.8" height="29.25"/><path class="cls-2" d="M60.32,15H40.13a1.85,1.85,0,0,1-2-1.65V9.6a1.85,1.85,0,0,1,2-1.65H60.32a1.85,1.85,0,0,1,2,1.65v3.76A1.85,1.85,0,0,1,60.32,15Z"/><path class="cls-2" d="M60.32,23.78H40.13a1.85,1.85,0,0,1-2-1.65V18.37a1.85,1.85,0,0,1,2-1.65H60.32a1.85,1.85,0,0,1,2,1.65v3.76A1.85,1.85,0,0,1,60.32,23.78Z"/><path class="cls-2" d="M60.32,32.55H40.13a1.85,1.85,0,0,1-2-1.66V27.14a1.85,1.85,0,0,1,2-1.66H60.32a1.85,1.85,0,0,1,2,1.66v3.75A1.85,1.85,0,0,1,60.32,32.55Z"/><path class="cls-3" d="M56.62,10.81a.88.88,0,1,1-.88-.88A.88.88,0,0,1,56.62,10.81Z"/><path class="cls-4" d="M59.2,10.81a.88.88,0,1,1-.87-.88A.88.88,0,0,1,59.2,10.81Z"/><path class="cls-3" d="M56.62,19a.88.88,0,1,1-.88-.88A.87.87,0,0,1,56.62,19Z"/><path class="cls-4" d="M59.2,19a.88.88,0,1,1-.87-.88A.87.87,0,0,1,59.2,19Z"/><path class="cls-3" d="M56.62,27.14a.88.88,0,1,1-1.75,0,.88.88,0,0,1,1.75,0Z"/><path class="cls-4" d="M59.2,27.14a.88.88,0,1,1-.87-.87A.88.88,0,0,1,59.2,27.14Z"/><rect class="cls-1" x="1.69" y="5.6" width="20.8" height="29.25"/><path class="cls-2" d="M22.18,15H2a1.85,1.85,0,0,1-2-1.65V9.6A1.85,1.85,0,0,1,2,8H22.18a1.85,1.85,0,0,1,2,1.65v3.76A1.85,1.85,0,0,1,22.18,15Z"/><path class="cls-2" d="M22.18,23.78H2a1.85,1.85,0,0,1-2-1.65V18.37a1.85,1.85,0,0,1,2-1.65H22.18a1.85,1.85,0,0,1,2,1.65v3.76A1.85,1.85,0,0,1,22.18,23.78Z"/><path class="cls-2" d="M22.18,32.55H2a1.85,1.85,0,0,1-2-1.66V27.14a1.85,1.85,0,0,1,2-1.66H22.18a1.85,1.85,0,0,1,2,1.66v3.75A1.85,1.85,0,0,1,22.18,32.55Z"/><path class="cls-3" d="M18.48,10.81a.88.88,0,1,1-.87-.88A.88.88,0,0,1,18.48,10.81Z"/><path class="cls-4" d="M21.07,10.81a.88.88,0,1,1-.88-.88A.89.89,0,0,1,21.07,10.81Z"/><path class="cls-3" d="M18.48,19a.88.88,0,1,1-.87-.88A.87.87,0,0,1,18.48,19Z"/><circle class="cls-4" cx="20.19" cy="18.98" r="0.88"/><path class="cls-3" d="M18.48,27.14a.88.88,0,1,1-.87-.87A.88.88,0,0,1,18.48,27.14Z"/><path class="cls-4" d="M21.07,27.14a.88.88,0,1,1-.88-.87A.89.89,0,0,1,21.07,27.14Z"/><rect class="cls-5" x="14.76" width="32.8" height="46.13"/><path class="cls-6" d="M47.08,14.85H15.24a2.92,2.92,0,0,1-3.15-2.61V6.32a2.92,2.92,0,0,1,3.15-2.61H47.08a2.91,2.91,0,0,1,3.14,2.61v5.92A2.91,2.91,0,0,1,47.08,14.85Z"/><path class="cls-6" d="M47.08,28.67H15.24a2.91,2.91,0,0,1-3.15-2.6V20.14a2.91,2.91,0,0,1,3.15-2.6H47.08a2.9,2.9,0,0,1,3.14,2.6v5.93A2.9,2.9,0,0,1,47.08,28.67Z"/><path class="cls-6" d="M47.08,42.5H15.24a2.92,2.92,0,0,1-3.15-2.61V34a2.92,2.92,0,0,1,3.15-2.61H47.08A2.91,2.91,0,0,1,50.22,34v5.92A2.91,2.91,0,0,1,47.08,42.5Z"/><path class="cls-3" d="M41.24,8.22a1.38,1.38,0,1,1-1.38-1.38A1.38,1.38,0,0,1,41.24,8.22Z"/><path class="cls-4" d="M45.31,8.22a1.38,1.38,0,1,1-1.38-1.38A1.38,1.38,0,0,1,45.31,8.22Z"/><path class="cls-3" d="M41.24,21.1a1.38,1.38,0,1,1-1.38-1.38A1.38,1.38,0,0,1,41.24,21.1Z"/><path class="cls-4" d="M45.31,21.1a1.38,1.38,0,1,1-1.38-1.38A1.38,1.38,0,0,1,45.31,21.1Z"/><path class="cls-3" d="M41.24,34a1.38,1.38,0,1,1-1.38-1.38A1.38,1.38,0,0,1,41.24,34Z"/><path class="cls-4" d="M45.31,34a1.38,1.38,0,1,1-1.38-1.38A1.38,1.38,0,0,1,45.31,34Z"/></g></g></svg>