<svg xmlns="http://www.w3.org/2000/svg" viewBox="0 0 56.37 48.08"><defs><style>.cls-1{isolation:isolate;}.cls-2{fill:#bcbbbd;}.cls-3{fill:#343643;}.cls-4{fill:#fbf6ed;}.cls-5{fill:#6a6b75;}.cls-6{fill:#bf2430;}.cls-7{fill:#9e9e9e;opacity:0.5;mix-blend-mode:multiply;}</style></defs><title>Asset 3</title><g class="cls-1"><g id="Layer_2" data-name="Layer 2"><g id="Layer_1-2" data-name="Layer 1"><path class="cls-2" d="M53.91,40.77H36.81A2.65,2.65,0,0,1,34.35,38V7a2.64,2.64,0,0,1,2.46-2.8h17.1A2.65,2.65,0,0,1,56.37,7V38A2.66,2.66,0,0,1,53.91,40.77Z"/><rect class="cls-3" x="36.23" y="6.96" width="18.26" height="4.7"/><rect class="cls-4" x="49.49" y="8.1" width="3.63" height="1.99"/><rect class="cls-5" x="36.23" y="15.74" width="18.26" height="22.2"/><rect class="cls-3" x="36.23" y="15.74" width="18.26" height="4.4"/><path class="cls-3" d="M47.61,33.53a2.25,2.25,0,1,1-2.25-2.25A2.25,2.25,0,0,1,47.61,33.53Z"/><path class="cls-6" d="M46.39,33.53a1,1,0,1,1-1-1A1,1,0,0,1,46.39,33.53Z"/><rect class="cls-2" x="44.98" y="22.19" width="0.76" height="7.94"/><path class="cls-7" d="M53.91,4.19H45.29V40.77h8.62A2.66,2.66,0,0,0,56.37,38V7A2.65,2.65,0,0,0,53.91,4.19Z"/><path class="cls-2" d="M19.55,40.77H2.46A2.65,2.65,0,0,1,0,38V7a2.64,2.64,0,0,1,2.46-2.8H19.55A2.64,2.64,0,0,1,22,7V38A2.65,2.65,0,0,1,19.55,40.77Z"/><rect class="cls-3" x="1.88" y="6.96" width="18.26" height="4.7"/><rect class="cls-4" x="15.13" y="8.1" width="3.63" height="1.99"/><rect class="cls-5" x="1.88" y="15.74" width="18.26" height="22.2"/><rect class="cls-3" x="1.88" y="15.74" width="18.26" height="4.4"/><path class="cls-3" d="M13.26,33.53A2.25,2.25,0,1,1,11,31.28,2.25,2.25,0,0,1,13.26,33.53Z"/><path class="cls-6" d="M12,33.53a1,1,0,1,1-1-1A1,1,0,0,1,12,33.53Z"/><rect class="cls-2" x="10.63" y="22.19" width="0.76" height="7.94"/><path class="cls-7" d="M19.55,4.19H10.94V40.77h8.61A2.65,2.65,0,0,0,22,38V7A2.64,2.64,0,0,0,19.55,4.19Z"/><path class="cls-2" d="M39.92,48.08H17.45a3.47,3.47,0,0,1-3.23-3.68V3.68A3.47,3.47,0,0,1,17.45,0H39.92a3.48,3.48,0,0,1,3.23,3.68V44.4A3.48,3.48,0,0,1,39.92,48.08Z"/><rect class="cls-3" x="16.68" y="3.65" width="24" height="6.18"/><rect class="cls-4" x="34.11" y="5.15" width="4.77" height="2.62"/><rect class="cls-5" x="16.68" y="15.18" width="24" height="29.18"/><rect class="cls-3" x="16.68" y="15.18" width="24" height="5.79"/><path class="cls-3" d="M31.64,38.56a3,3,0,1,1-3-3A3,3,0,0,1,31.64,38.56Z"/><path class="cls-6" d="M30,38.56a1.36,1.36,0,1,1-1.36-1.35A1.36,1.36,0,0,1,30,38.56Z"/><rect class="cls-2" x="28.18" y="23.66" width="1" height="10.43"/><path class="cls-7" d="M39.92,0H28.59V48.08H39.92a3.48,3.48,0,0,0,3.23-3.68V3.68A3.48,3.48,0,0,0,39.92,0Z"/></g></g></g></svg>