<svg xmlns="http://www.w3.org/2000/svg" viewBox="0 0 66.33 68.61"><defs><style>.cls-1{fill:#e9b28a;}.cls-2{fill:#b0bec5;}.cls-3{fill:#2a445d;}.cls-4{fill:#cfd8dc;}.cls-5{fill:#90a4ae;}.cls-6{fill:#a6dae8;}.cls-7{fill:#f94e63;}.cls-8{fill:#17c5cc;}.cls-9{fill:#ffd740;}.cls-10{fill:#fff;}.cls-11{fill:#16405e;}.cls-12{fill:#1c4d6b;}.cls-13{fill:#f1c3a4;}.cls-14{fill:#e6af87;}.cls-15{fill:#f62f48;}</style></defs><title>6</title><g id="Layer_2" data-name="Layer 2"><g id="_1" data-name="1"><g id="_6" data-name="6"><path class="cls-1" d="M4.13,55l1-2.23V46.71A9.52,9.52,0,0,1,7,41.05l6.56-8.93,7.5-5L23,44.1l-1.26,9.46L15.82,60Z"/><rect class="cls-2" x="12.29" y="12.98" width="54.04" height="40.23" rx="5.13"/><polygon class="cls-3" points="16.6 16.74 16.28 16.74 16.28 49.45 49.3 49.45 60.68 49.45 60.68 16.74 16.6 16.74"/><path class="cls-4" d="M65.37,33.09a1.91,1.91,0,1,1-1.91-1.9A1.9,1.9,0,0,1,65.37,33.09Z"/><path class="cls-5" d="M16.11,33.09a1.54,1.54,0,1,1-1.54-1.54A1.54,1.54,0,0,1,16.11,33.09Z"/><rect class="cls-6" x="21.86" y="31.65" width="7.04" height="12.81"/><rect class="cls-7" x="30.29" y="24.95" width="7.04" height="19.51"/><rect class="cls-8" x="38.72" y="18.74" width="7.04" height="25.72"/><rect class="cls-9" x="47.15" y="29.76" width="7.04" height="14.7"/><path class="cls-1" d="M24.89,42.15s0,0,0,.06a1.09,1.09,0,0,1,0,.18,1.8,1.8,0,0,1-.31.79l-.06.08A2.21,2.21,0,0,1,23,44.1H17.56l-2,8.29.58,3.16,2-.39L12.5,57.52,8.42,52.65l2.5-13.42h4.61l5.12.85.6.1,2.95.5A2.17,2.17,0,0,1,24.89,42.15Z"/><polygon class="cls-10" points="2.63 56.47 4.13 53.21 16.28 59.98 14.26 63.74 2.63 56.47"/><path class="cls-11" d="M10.78,59.7,8.7,63.77C5.58,62,2.37,60.15,0,58.89L2.31,55Z"/><path class="cls-12" d="M15.88,62.55,13.79,66.8c-1.54-.94-3.3-2-5.09-3l2.08-4.07Z"/><path class="cls-13" d="M24.89,42.15s0,0,0,.06a.34.34,0,0,1,0,.1,1.85,1.85,0,0,1-.26.77,9.19,9.19,0,0,1-1.36-.19c-2.54-.83-2.16-2.31-2-2.71l2.95.5A2.17,2.17,0,0,1,24.89,42.15Z"/><path class="cls-14" d="M61.24,60.77c-.08.07-.39,0-.49.07l-1,.12c-1,.13-.79.48-1.77.6-2,.26-4.06.2-6.06.51-1.82.28-2.75-.93-3.93-2.25-2-2.16-4.9-4.11-5.86-6.94a21.37,21.37,0,0,1-1.07-3.53,19,19,0,0,0-.4-2.89c-.28-.92-1.36-2.64.27-2.59a3.83,3.83,0,0,1,1.46.32,4.24,4.24,0,0,1,1.49,2.06c.2.59.12,1.21.33,1.79a8.29,8.29,0,0,0,1.27,2.09A33.72,33.72,0,0,0,45,44.46l-.63-4.86-.9-6.93s0,0,0,0c0-.44-.15-.9-.17-1.34a.83.83,0,0,1,.16-.47l.09-.11h0a1.52,1.52,0,0,1,.22-.22,2.14,2.14,0,0,1,2.45-.34l.26.14h0a1.55,1.55,0,0,1,.27.24.7.7,0,0,1,.17.38c0,.24.06.49.1.74.2,1.58.39,3.16.59,4.74.14,1.08.22,2.18.42,3.25a8.45,8.45,0,0,0,.8,2.86c0-.25.08-.64,0-.93s-.09-.62-.13-.94a5.74,5.74,0,0,1-.15-1.84,2,2,0,0,1,2.58-.95c.87.43,1,1.6,1.21,2.43.06.24.46,1.14.57.74a20.39,20.39,0,0,1,.43-2.57,1.86,1.86,0,0,1,2.47-.51c1.17.64,1.18,2.53,1.32,3.68.2-.21.11-1,.29-1.31a1.82,1.82,0,0,1,1.28-.65c1.91-.13,1.84,2.17,2.14,3.48a35.35,35.35,0,0,1,.89,7.18,22.11,22.11,0,0,1-.1,3.55c-.14,1-.81,1.9-.86,2.94a15.85,15.85,0,0,0,.32,2.65c.06.45.11.81.13,1S61.33,60.7,61.24,60.77Z"/><path class="cls-13" d="M45.82,33.46c-.8.23-1.61-.47-1.81-1.55L43.84,31l0-.22a2.28,2.28,0,0,1,.22-.22,2.15,2.15,0,0,1,2.46-.35l.25.15h0l.13.72A2,2,0,0,1,45.82,33.46Z"/><polygon class="cls-10" points="61.36 58.6 48.19 60.36 49.08 63.84 62.02 61.67 61.36 58.6"/><polygon class="cls-12" points="64.45 65.64 53.38 67.75 52.22 62.77 63.06 60.8 64.45 65.64"/><polygon class="cls-11" points="53.38 67.75 48.82 68.61 47.59 63.6 52.22 62.77 53.38 67.75"/><path class="cls-15" d="M22.51,26.51a1,1,0,0,1-.86-1.64L31.08,11a1,1,0,0,1,.76-.46,1,1,0,0,1,.84.3l9.83,9.83,11-18.16a1,1,0,0,1,1.79,1.08L43.62,22.86a1.06,1.06,0,0,1-.78.5,1,1,0,0,1-.86-.3L32.1,13.18,23.38,26.05A1,1,0,0,1,22.51,26.51Z"/><path class="cls-7" d="M25.66,25.91a3.15,3.15,0,1,1-3.15-3.14A3.14,3.14,0,0,1,25.66,25.91Z"/><path class="cls-7" d="M35,12.42A3.14,3.14,0,1,1,31.9,9.28,3.13,3.13,0,0,1,35,12.42Z"/><path class="cls-7" d="M45.52,21.7a3.14,3.14,0,1,1-3.14-3.14A3.14,3.14,0,0,1,45.52,21.7Z"/><path class="cls-7" d="M57.2,3.14A3.15,3.15,0,1,1,54.05,0,3.15,3.15,0,0,1,57.2,3.14Z"/></g></g></g></svg>