<svg xmlns="http://www.w3.org/2000/svg" viewBox="0 0 71.38 66.87"><defs><style>.cls-1{isolation:isolate;}.cls-2{fill:#90a4ae;}.cls-3{fill:#b0bec5;}.cls-4{fill:#cfd8dc;}.cls-5{fill:#68787a;}.cls-6{fill:#2a445d;}.cls-7{fill:#bdbdbd;opacity:0.41;mix-blend-mode:overlay;}.cls-8{fill:#0ec0c0;}.cls-9{fill:#184f78;}.cls-10{fill:#a6dae8;}.cls-11{fill:#f94e63;}.cls-12{fill:#17c5cc;}.cls-13{fill:#ffd740;}.cls-14{fill:#fff;}.cls-15{fill:#ff6f00;}.cls-16{fill:#f4cd25;}</style></defs><title>8</title><g class="cls-1"><g id="Layer_2" data-name="Layer 2"><g id="_1" data-name="1"><g id="_8" data-name="8"><g id="_5" data-name="5"><polygon class="cls-2" points="39.2 54.43 33.08 53.62 26.97 54.43 26.55 56.82 39.62 56.82 39.2 54.43"/><polygon class="cls-3" points="39.62 56.82 26.55 56.82 25.29 63.95 40.88 63.95 39.62 56.82"/><path class="cls-4" d="M47.59,66.33l-.74-1.13C46,64.62,41,64.3,41,64.3h0L40.88,64H25.29l-.06.35h0s-5,.32-5.89.9l-.74,1.13c-.31.2,0,.54.49.54h28C47.58,66.87,47.89,66.53,47.59,66.33Z"/><rect class="cls-4" y="12.69" width="66.17" height="41.96" rx="0.26"/><rect class="cls-5" x="3.55" y="15.59" width="59.07" height="36.15"/><polygon class="cls-6" points="45.92 16.3 4.42 16.3 4.42 16.63 4.42 50.84 36.69 50.84 45.92 50.84 61.57 50.84 61.57 16.3 45.92 16.3"/></g><polygon class="cls-7" points="4.42 16.82 4.42 50.84 36.69 50.84 45.92 50.84 61.57 50.84 61.57 50.6 4.42 16.82"/><path class="cls-8" d="M53.75,10.42,53.53,8,51.7,7.83a6.66,6.66,0,0,0-.54-1.15l1.05-1.49L50.48,3.46,49,4.52A6.65,6.65,0,0,0,47.82,4l-.15-1.8L45.24,2l-.45,1.75a6.45,6.45,0,0,0-1.27.34L42.26,2.78l-.06,0L40.26,4.18,41,5.81a7.13,7.13,0,0,0-.74,1.08L38.5,6.72l-.63,2.37,1.65.75a7,7,0,0,0,.12,1.29l-1.48,1,1,2.22L41,13.89a6.37,6.37,0,0,0,.91.89l-.48,1.77,2.22,1,1-1.53a6.53,6.53,0,0,0,1.25.11l.78,1.67,2.36-.64L49,16.25l-.09-.91c.18-.1.35-.21.52-.32s.34-.26.51-.4l1.67.79,1.4-2-1.33-1.3A6.38,6.38,0,0,0,52,10.89ZM48,13.08a3.39,3.39,0,0,1-.51.3,3.9,3.9,0,0,1-4-6.68A5.5,5.5,0,0,1,44,6.42a3.9,3.9,0,0,1,4,6.66Z"/><path class="cls-9" d="M71.38,8.45,71.16,6l-1.84-.15a5.45,5.45,0,0,0-.54-1.15l1.06-1.5L68.11,1.5,66.62,2.56A5.68,5.68,0,0,0,65.45,2L65.3.21,62.86,0l-.45,1.75a6.18,6.18,0,0,0-1.26.34L59.89.81l-.06,0L57.88,2.22l.78,1.63a6.45,6.45,0,0,0-.75,1.07l-1.78-.16L55.5,7.13l1.65.75a5.64,5.64,0,0,0,.12,1.29l-1.49,1,1,2.21,1.77-.48a5.89,5.89,0,0,0,.91.89L59,14.59l2.22,1,1-1.53a6,6,0,0,0,1.26.1l.77,1.68,2.37-.64-.09-.94-.09-.91a5.54,5.54,0,0,0,.51-.33,4.91,4.91,0,0,0,.51-.39l1.68.79,1.39-2-1.32-1.3a5.62,5.62,0,0,0,.32-1.22Zm-5.73,2.67a3.25,3.25,0,0,1-.51.3,3.9,3.9,0,0,1-4-6.68,3.24,3.24,0,0,1,.47-.28,3.9,3.9,0,0,1,4,6.66Z"/><rect class="cls-10" x="7.81" y="34.77" width="7.04" height="12.16"/><rect class="cls-11" x="16.24" y="28.4" width="7.04" height="18.53"/><rect class="cls-12" x="24.67" y="22.51" width="7.04" height="24.42"/><rect class="cls-13" x="33.1" y="32.97" width="7.04" height="13.96"/><rect class="cls-14" x="42.02" y="27.45" width="7.04" height="19.48"/><rect class="cls-15" x="50.45" y="32.69" width="7.04" height="14.24"/><path class="cls-16" d="M67.21,21.2l-.3-3.32-2.5-.2a8.3,8.3,0,0,0-.74-1.57l1.44-2-2.36-2.35-2,1.44a8.64,8.64,0,0,0-1.6-.75L58.93,10l-3.32-.28L55,12.07a8,8,0,0,0-1.72.46L51.56,10.8l-.08,0-2.65,1.86,1.06,2.22a8,8,0,0,0-1,1.46l-2.43-.22-.86,3.22,2.25,1A8,8,0,0,0,48,22.17l-2,1.41,1.41,3,2.41-.66A8.41,8.41,0,0,0,51,27.15l-.66,2.4,3,1.4,1.42-2.07a9,9,0,0,0,1.71.14l1.06,2.28,3.21-.87-.12-1.29-.12-1.23c.24-.14.47-.29.7-.45a6.34,6.34,0,0,0,.69-.54L64.23,28l1.91-2.74-1.8-1.77a9.33,9.33,0,0,0,.44-1.65Zm-7.8,3.63a4.92,4.92,0,0,1-.7.41,5.31,5.31,0,0,1-5.41-9.1,6.11,6.11,0,0,1,.65-.38,5.31,5.31,0,0,1,5.46,9.07Z"/></g></g></g></g></svg>