<svg xmlns="http://www.w3.org/2000/svg" viewBox="0 0 69.26 64.75"><defs><style>.cls-1{isolation:isolate;}.cls-2{fill:#cfd8dc;}.cls-3{fill:#2a445d;}.cls-4{fill:#355168;}.cls-5{fill:#90a4ae;}.cls-6{fill:#b0bec5;}.cls-7{fill:#0ec0c0;}.cls-8{fill:#fff;}.cls-9{fill:#306b88;}.cls-10{fill:#2dd;}.cls-11{fill:#f4cd25;}.cls-12{fill:#f62f48;}.cls-13{fill:#14b0bf;}.cls-14,.cls-15{fill:#17c5cc;}.cls-14,.cls-16{opacity:0.7;mix-blend-mode:overlay;}.cls-16{fill:#939598;}</style></defs><title>11</title><g class="cls-1"><g id="Layer_2" data-name="Layer 2"><g id="_1" data-name="1"><g id="_11" data-name="11"><path class="cls-2" d="M58,19.33H6.42a2.54,2.54,0,0,0-2.48,2.58v32a2.54,2.54,0,0,0,2.48,2.57H58a2.53,2.53,0,0,0,2.48-2.57v-32A2.53,2.53,0,0,0,58,19.33Z"/><path class="cls-3" d="M8,21.56H56.38a2,2,0,0,1,2,2V53.07a2,2,0,0,1-.8,1.61L7,21.83A2,2,0,0,1,8,21.56Z"/><path class="cls-4" d="M7,21.83,57.58,54.68a2,2,0,0,1-1.2.41H8a2,2,0,0,1-2-2V23.58A2,2,0,0,1,7,21.83Z"/><path class="cls-5" d="M64.75,63.14l0-.82L0,62.86v.32a1.85,1.85,0,0,0,2,1.57H62.71C63.86,64.75,64.78,64,64.75,63.14Z"/><path class="cls-2" d="M58.82,56.33H6a3.75,3.75,0,0,0-2.78.91L.1,62.32c-.39.63.43,1.16,1.84,1.16H62.88c1.4,0,2.23-.53,1.84-1.16l-3.13-5.08A3.74,3.74,0,0,0,58.82,56.33Z"/><path class="cls-6" d="M56.52,58.28H8.3a4,4,0,0,0-2.25.41L4.89,60.85c-.14.26.71.46,1.9.46H58c1.18,0,2-.2,1.9-.46l-1.17-2.16A4,4,0,0,0,56.52,58.28Z"/><path class="cls-6" d="M55.79,56.82H9a9.53,9.53,0,0,0-2,.12l-.3.56a8.08,8.08,0,0,0,1.93.11H56.18a8.28,8.28,0,0,0,1.94-.11l-.31-.56A9.53,9.53,0,0,0,55.79,56.82Z"/><path class="cls-6" d="M44.28,61.56H20.53c-.55,0-1,.08-1,.18l-.23.93c0,.1.41.19,1,.19H44.58c.56,0,1-.09,1-.19l-.23-.93C45.3,61.64,44.83,61.56,44.28,61.56Z"/><polygon class="cls-7" points="46.85 15 14.59 15 14.59 51.72 37.31 51.72 46.85 42.73 46.85 15"/><polygon class="cls-8" points="44.89 17.23 16.55 17.23 16.55 49.48 36.51 49.48 44.89 41.59 44.89 17.23"/><rect class="cls-9" x="18.1" y="33.12" width="24.33" height="3.86"/><rect class="cls-9" x="18.1" y="21.27" width="24.33" height="3.86"/><rect class="cls-9" x="18.1" y="27.19" width="24.33" height="3.86"/><rect class="cls-9" x="18.1" y="39.05" width="24.33" height="3.86"/><polygon class="cls-10" points="46.85 42.73 37.31 51.72 37.31 42.73 46.85 42.73"/><path class="cls-11" d="M54.92,10.22,54.33,7,51.88,7A8.42,8.42,0,0,0,51,5.57l1.22-2.11L49.73,1.38,47.89,3a7.91,7.91,0,0,0-1.63-.58L45.85,0,42.58,0,42.2,2.4a8.29,8.29,0,0,0-1.64.6L38.73,1.46l-.07.06L36.24,3.57l1.23,2.07a7.9,7.9,0,0,0-.86,1.52h-2.4l-.55,3.21,2.29.8a7.7,7.7,0,0,0,.32,1.71l-1.86,1.54,1.65,2.82,2.29-.86a8.42,8.42,0,0,0,1.32,1.08l-.43,2.4L42.31,21l1.21-2.15a8.58,8.58,0,0,0,1.68,0l1.23,2.13,3.06-1.13-.23-1.24L49,17.35c.22-.15.44-.32.65-.49s.43-.39.62-.59l2.32.84,1.62-2.83-1.92-1.57a8.5,8.5,0,0,0,.28-1.65Zm-7.28,4.23a5.51,5.51,0,0,1-.65.46A5.2,5.2,0,0,1,40.9,6.52a6,6,0,0,1,.6-.43,5.2,5.2,0,0,1,6.14,8.36Z"/><path class="cls-12" d="M43.48,19.27l-.27-3-2.27-.18a8.07,8.07,0,0,0-.67-1.43l1.31-1.86-2.15-2.14L37.59,12a8,8,0,0,0-1.46-.67L35.94,9l-3-.26L32.36,11a8.14,8.14,0,0,0-1.57.43L29.23,9.79l-.07.05-2.42,1.7,1,2a7.57,7.57,0,0,0-.93,1.33l-2.22-.2-.78,2.93,2,.93A8.69,8.69,0,0,0,26,20.16l-1.84,1.28,1.29,2.74,2.19-.6a7.9,7.9,0,0,0,1.13,1.11l-.6,2.19,2.75,1.28,1.3-1.89a8.2,8.2,0,0,0,1.56.12l1,2.08,2.93-.79-.11-1.17-.11-1.13c.22-.12.43-.26.64-.4a7.68,7.68,0,0,0,.63-.5l2.08,1L42.51,23l-1.64-1.61a7.81,7.81,0,0,0,.4-1.51Zm-7.1,3.31a5,5,0,0,1-.63.37,4.83,4.83,0,0,1-4.93-8.28,3.53,3.53,0,0,1,.59-.35,4.83,4.83,0,0,1,5,8.26Z"/><path class="cls-13" d="M68.25,12v4H65.52V12a3.37,3.37,0,0,0-3.36-3.36H59.55A3.36,3.36,0,0,0,56.19,12v4H53.46V12a6.09,6.09,0,0,1,6.09-6.09h2.61a4.26,4.26,0,0,1,.5,0A6.1,6.1,0,0,1,68.25,12Z"/><path class="cls-14" d="M68.25,12v3.34H66.71V11.6a3.23,3.23,0,0,0-3.29-3.15H60.87a3.4,3.4,0,0,0-1,.16h-.3A3.36,3.36,0,0,0,56.19,12v3.34H54.9V11.6a5.85,5.85,0,0,1,6-5.7h1.79A6.1,6.1,0,0,1,68.25,12Z"/><path class="cls-15" d="M69.26,26V16.3a2,2,0,0,0-2-2H54a2,2,0,0,0-1.13.35L68.7,27.36A2,2,0,0,0,69.26,26Z"/><path class="cls-13" d="M52.84,14.67A2,2,0,0,0,52,16.3V26a2,2,0,0,0,2,2h13.3a2,2,0,0,0,1.43-.61Z"/><rect class="cls-16" x="53.27" y="15.25" width="14.7" height="10.97" rx="1.52"/><path class="cls-3" d="M62.08,20.94a1.29,1.29,0,1,1-1.29-1.28A1.28,1.28,0,0,1,62.08,20.94Z"/><rect class="cls-3" x="60.05" y="20.45" width="1.48" height="4.05"/></g></g></g></g></svg>