<svg xmlns="http://www.w3.org/2000/svg" viewBox="0 0 51.22 53.18"><defs><style>.cls-1{isolation:isolate;}.cls-2{fill:#57667f;}.cls-3{fill:#2f3845;}.cls-4{fill:#c8b4a2;}.cls-5{fill:#ed4313;}.cls-6{fill:#8bb5f3;}.cls-7{fill:#d2e7f8;mix-blend-mode:multiply;}</style></defs><title>Asset 2</title><g class="cls-1"><g id="Layer_2" data-name="Layer 2"><g id="Background"><rect class="cls-2" width="22.45" height="51.5"/><rect class="cls-3" width="11.23" height="51.5"/><path class="cls-4" d="M20.08,2.54H2.42a.54.54,0,0,0-.49.58.54.54,0,0,0,.49.58H20.08a.53.53,0,0,0,.48-.58A.53.53,0,0,0,20.08,2.54Z"/><path class="cls-4" d="M20.08,8H2.42a.54.54,0,0,0-.49.58.54.54,0,0,0,.49.58H20.08a.53.53,0,0,0,.48-.58A.53.53,0,0,0,20.08,8Z"/><path class="cls-4" d="M20.08,13.51H2.42a.59.59,0,0,0,0,1.16H20.08a.59.59,0,0,0,0-1.16Z"/><path class="cls-4" d="M20.08,19H2.42a.59.59,0,0,0,0,1.16H20.08a.59.59,0,0,0,0-1.16Z"/><path class="cls-4" d="M20.08,24.48H2.42a.59.59,0,0,0,0,1.16H20.08a.59.59,0,0,0,0-1.16Z"/><path class="cls-4" d="M20.08,30H2.42a.59.59,0,0,0,0,1.16H20.08a.59.59,0,0,0,0-1.16Z"/><path class="cls-4" d="M20.08,35.45H2.42a.59.59,0,0,0,0,1.16H20.08a.59.59,0,0,0,0-1.16Z"/><path class="cls-4" d="M20.08,40.94H2.42a.59.59,0,0,0,0,1.16H20.08a.59.59,0,0,0,0-1.16Z"/><path class="cls-5" d="M6.84,2.54H2.06c-.07,0-.13.26-.13.58s.06.58.13.58H6.84c.07,0,.13-.26.13-.58S6.91,2.54,6.84,2.54Z"/><path class="cls-5" d="M6.84,8H2.06c-.07,0-.13.25-.13.58s.06.58.13.58H6.84c.07,0,.13-.26.13-.58S6.91,8,6.84,8Z"/><path class="cls-5" d="M6.84,13.51H2.06c-.07,0-.13.26-.13.58s.06.58.13.58H6.84c.07,0,.13-.26.13-.58S6.91,13.51,6.84,13.51Z"/><path class="cls-5" d="M6.84,19H2.06c-.07,0-.13.26-.13.58s.06.58.13.58H6.84c.07,0,.13-.26.13-.58S6.91,19,6.84,19Z"/><path class="cls-5" d="M6.84,24.48H2.06c-.07,0-.13.26-.13.58s.06.58.13.58H6.84c.07,0,.13-.26.13-.58S6.91,24.48,6.84,24.48Z"/><path class="cls-5" d="M6.84,30H2.06c-.07,0-.13.26-.13.58s.06.58.13.58H6.84c.07,0,.13-.26.13-.58S6.91,30,6.84,30Z"/><path class="cls-5" d="M6.84,35.45H2.06c-.07,0-.13.26-.13.58s.06.58.13.58H6.84c.07,0,.13-.26.13-.58S6.91,35.45,6.84,35.45Z"/><path class="cls-5" d="M6.84,40.94H2.06c-.07,0-.13.26-.13.58s.06.58.13.58H6.84c.07,0,.13-.26.13-.58S6.91,40.94,6.84,40.94Z"/><path class="cls-4" d="M18.78,45.15H3.67a2.15,2.15,0,0,0,0,4.23H18.78a2.15,2.15,0,0,0,0-4.23Z"/><path class="cls-5" d="M13.62,27.34a.61.61,0,0,0,0,1.2.61.61,0,0,0,0-1.2Z"/><path class="cls-6" d="M15.93,27.34a.61.61,0,1,0,.5.6A.55.55,0,0,0,15.93,27.34Z"/><path class="cls-5" d="M18.26,27.34a.61.61,0,1,0,.5.6A.55.55,0,0,0,18.26,27.34Z"/><path class="cls-5" d="M13.61,10.84a.61.61,0,1,0,.5.6A.55.55,0,0,0,13.61,10.84Z"/><path class="cls-5" d="M15.93,10.84a.61.61,0,0,0,0,1.2.61.61,0,0,0,0-1.2Z"/><path class="cls-6" d="M18.26,10.84a.61.61,0,1,0,.49.6A.56.56,0,0,0,18.26,10.84Z"/><path class="cls-3" d="M18.64,51.5H3.81a.65.65,0,0,0-.58.7.66.66,0,0,0,.58.71H18.64a.66.66,0,0,0,.58-.71A.65.65,0,0,0,18.64,51.5Z"/><rect class="cls-7" x="1.39" y="45.15" width="9.84" height="4.23"/><rect class="cls-2" x="28.77" y="0.27" width="22.45" height="51.5"/><rect class="cls-3" x="28.77" y="0.27" width="11.23" height="51.5"/><path class="cls-4" d="M48.85,2.81H31.18a.54.54,0,0,0-.48.59.54.54,0,0,0,.48.58H48.85a.54.54,0,0,0,.48-.58A.54.54,0,0,0,48.85,2.81Z"/><path class="cls-4" d="M48.85,8.3H31.18a.59.59,0,0,0,0,1.16H48.85a.59.59,0,0,0,0-1.16Z"/><path class="cls-4" d="M48.85,13.78H31.18a.6.6,0,0,0,0,1.17H48.85a.6.6,0,0,0,0-1.17Z"/><path class="cls-4" d="M48.85,19.27H31.18a.59.59,0,0,0,0,1.16H48.85a.59.59,0,0,0,0-1.16Z"/><path class="cls-4" d="M48.85,24.75H31.18a.6.6,0,0,0,0,1.17H48.85a.6.6,0,0,0,0-1.17Z"/><path class="cls-4" d="M48.85,30.24H31.18a.59.59,0,0,0,0,1.16H48.85a.59.59,0,0,0,0-1.16Z"/><path class="cls-4" d="M48.85,35.72H31.18a.6.6,0,0,0,0,1.17H48.85a.6.6,0,0,0,0-1.17Z"/><path class="cls-4" d="M48.85,41.21H31.18a.59.59,0,0,0,0,1.16H48.85a.59.59,0,0,0,0-1.16Z"/><path class="cls-5" d="M35.61,2.81H30.83c-.07,0-.13.26-.13.59s.06.58.13.58h4.78c.07,0,.13-.26.13-.58S35.68,2.81,35.61,2.81Z"/><path class="cls-5" d="M35.61,8.3H30.83c-.07,0-.13.26-.13.58s.06.58.13.58h4.78c.07,0,.13-.26.13-.58S35.68,8.3,35.61,8.3Z"/><path class="cls-5" d="M35.61,13.78H30.83c-.07,0-.13.26-.13.59s.06.58.13.58h4.78c.07,0,.13-.26.13-.58S35.68,13.78,35.61,13.78Z"/><path class="cls-5" d="M35.61,19.27H30.83c-.07,0-.13.26-.13.58s.06.58.13.58h4.78c.07,0,.13-.26.13-.58S35.68,19.27,35.61,19.27Z"/><path class="cls-5" d="M35.61,24.75H30.83c-.07,0-.13.26-.13.59s.06.58.13.58h4.78c.07,0,.13-.26.13-.58S35.68,24.75,35.61,24.75Z"/><path class="cls-5" d="M35.61,30.24H30.83c-.07,0-.13.26-.13.58s.06.58.13.58h4.78c.07,0,.13-.26.13-.58S35.68,30.24,35.61,30.24Z"/><path class="cls-5" d="M35.61,35.72H30.83c-.07,0-.13.26-.13.59s.06.58.13.58h4.78c.07,0,.13-.26.13-.58S35.68,35.72,35.61,35.72Z"/><path class="cls-5" d="M35.61,41.21H30.83c-.07,0-.13.26-.13.58s.06.58.13.58h4.78c.07,0,.13-.26.13-.58S35.68,41.21,35.61,41.21Z"/><path class="cls-4" d="M47.55,45.42H32.44a2.15,2.15,0,0,0,0,4.23H47.55a2.15,2.15,0,0,0,0-4.23Z"/><path class="cls-5" d="M42.39,27.61a.61.61,0,0,0,0,1.2.61.61,0,0,0,0-1.2Z"/><path class="cls-6" d="M44.7,27.61a.61.61,0,0,0,0,1.2.61.61,0,0,0,0-1.2Z"/><path class="cls-5" d="M47,27.61a.61.61,0,0,0,0,1.2.61.61,0,0,0,0-1.2Z"/><path class="cls-5" d="M42.38,11.12a.6.6,0,0,0,0,1.19.6.6,0,0,0,0-1.19Z"/><path class="cls-5" d="M44.7,11.12a.61.61,0,1,0,.49.6A.55.55,0,0,0,44.7,11.12Z"/><ellipse class="cls-6" cx="47.02" cy="11.72" rx="0.5" ry="0.6"/><path class="cls-3" d="M47.4,51.77H32.58a.66.66,0,0,0-.58.71.65.65,0,0,0,.58.7H47.4a.65.65,0,0,0,.59-.7A.66.66,0,0,0,47.4,51.77Z"/><rect class="cls-7" x="30.15" y="45.42" width="9.84" height="4.23"/></g></g></g></svg>