<svg xmlns="http://www.w3.org/2000/svg" viewBox="0 0 70.31 58.82"><defs><style>.cls-1{isolation:isolate;}.cls-2{fill:#57667f;}.cls-3{fill:#2f3845;}.cls-4{fill:#c8b4a2;}.cls-5{fill:#ed4313;}.cls-6{fill:#8bb5f3;}.cls-7{fill:#d2e7f8;mix-blend-mode:multiply;}</style></defs><title>Asset 1</title><g class="cls-1"><g id="Layer_2" data-name="Layer 2"><g id="Background"><rect class="cls-2" y="9.57" width="20.9" height="47.94"/><rect class="cls-3" y="9.57" width="10.45" height="47.94"/><path class="cls-4" d="M18.69,11.93H2.25a.56.56,0,0,0,0,1.09H18.69a.56.56,0,0,0,0-1.09Z"/><path class="cls-4" d="M18.69,17H2.25a.55.55,0,0,0,0,1.08H18.69a.55.55,0,0,0,0-1.08Z"/><path class="cls-4" d="M18.69,22.15H2.25a.55.55,0,0,0,0,1.08H18.69a.55.55,0,0,0,0-1.08Z"/><path class="cls-4" d="M18.69,27.25H2.25a.5.5,0,0,0-.45.54.51.51,0,0,0,.45.55H18.69a.51.51,0,0,0,.45-.55A.5.5,0,0,0,18.69,27.25Z"/><path class="cls-4" d="M18.69,32.36H2.25a.55.55,0,0,0,0,1.08H18.69a.55.55,0,0,0,0-1.08Z"/><path class="cls-4" d="M18.69,37.46H2.25A.51.51,0,0,0,1.8,38a.5.5,0,0,0,.45.54H18.69a.5.5,0,0,0,.45-.54A.51.51,0,0,0,18.69,37.46Z"/><path class="cls-4" d="M18.69,42.57H2.25a.55.55,0,0,0,0,1.08H18.69a.55.55,0,0,0,0-1.08Z"/><path class="cls-4" d="M18.69,47.68H2.25a.55.55,0,0,0,0,1.08H18.69a.55.55,0,0,0,0-1.08Z"/><path class="cls-5" d="M6.37,11.93H1.92c-.07,0-.12.25-.12.55s.05.54.12.54H6.37c.07,0,.12-.25.12-.54S6.44,11.93,6.37,11.93Z"/><path class="cls-5" d="M6.37,17H1.92c-.07,0-.12.24-.12.54s.05.54.12.54H6.37c.07,0,.12-.24.12-.54S6.44,17,6.37,17Z"/><path class="cls-5" d="M6.37,22.15H1.92c-.07,0-.12.24-.12.54s.05.54.12.54H6.37c.07,0,.12-.24.12-.54S6.44,22.15,6.37,22.15Z"/><path class="cls-5" d="M6.37,27.25H1.92c-.07,0-.12.24-.12.54s.05.55.12.55H6.37c.07,0,.12-.25.12-.55S6.44,27.25,6.37,27.25Z"/><path class="cls-5" d="M6.37,32.36H1.92c-.07,0-.12.24-.12.54s.05.54.12.54H6.37c.07,0,.12-.24.12-.54S6.44,32.36,6.37,32.36Z"/><path class="cls-5" d="M6.37,37.46H1.92c-.07,0-.12.25-.12.55s.05.54.12.54H6.37c.07,0,.12-.24.12-.54S6.44,37.46,6.37,37.46Z"/><path class="cls-5" d="M6.37,42.57H1.92c-.07,0-.12.24-.12.54s.05.54.12.54H6.37c.07,0,.12-.24.12-.54S6.44,42.57,6.37,42.57Z"/><path class="cls-5" d="M6.37,47.68H1.92c-.07,0-.12.24-.12.54s.05.54.12.54H6.37c.07,0,.12-.24.12-.54S6.44,47.68,6.37,47.68Z"/><path class="cls-6" d="M17.49,51.6H3.42a2,2,0,0,0,0,3.94H17.49a2,2,0,0,0,0-3.94Z"/><path class="cls-5" d="M12.68,35a.56.56,0,1,0,.46.56A.51.51,0,0,0,12.68,35Z"/><path class="cls-6" d="M14.83,35a.56.56,0,1,0,.47.56A.52.52,0,0,0,14.83,35Z"/><path class="cls-5" d="M17,35a.56.56,0,1,0,.47.56A.52.52,0,0,0,17,35Z"/><path class="cls-5" d="M12.67,19.66a.57.57,0,1,0,.47.56A.52.52,0,0,0,12.67,19.66Z"/><path class="cls-5" d="M14.83,19.66a.57.57,0,1,0,.46.56A.52.52,0,0,0,14.83,19.66Z"/><path class="cls-6" d="M17,19.66a.57.57,0,1,0,.46.56A.52.52,0,0,0,17,19.66Z"/><path class="cls-3" d="M17.35,57.51H3.55a.67.67,0,0,0,0,1.31h13.8a.67.67,0,0,0,0-1.31Z"/><rect class="cls-7" x="1.29" y="51.6" width="9.16" height="3.94"/><rect class="cls-2" x="49.41" y="9.57" width="20.9" height="47.94"/><rect class="cls-3" x="49.41" y="9.57" width="10.45" height="47.94"/><path class="cls-4" d="M68.11,11.93H51.66a.56.56,0,0,0,0,1.09H68.11a.56.56,0,0,0,0-1.09Z"/><path class="cls-4" d="M68.11,17H51.66a.55.55,0,0,0,0,1.08H68.11a.55.55,0,0,0,0-1.08Z"/><path class="cls-4" d="M68.11,22.15H51.66a.55.55,0,0,0,0,1.08H68.11a.55.55,0,0,0,0-1.08Z"/><path class="cls-4" d="M68.11,27.25H51.66a.5.5,0,0,0-.45.54.51.51,0,0,0,.45.55H68.11a.51.51,0,0,0,.45-.55A.5.5,0,0,0,68.11,27.25Z"/><path class="cls-4" d="M68.11,32.36H51.66a.55.55,0,0,0,0,1.08H68.11a.55.55,0,0,0,0-1.08Z"/><path class="cls-4" d="M68.11,37.46H51.66a.51.51,0,0,0-.45.55.5.5,0,0,0,.45.54H68.11a.5.5,0,0,0,.45-.54A.51.51,0,0,0,68.11,37.46Z"/><path class="cls-4" d="M68.11,42.57H51.66a.55.55,0,0,0,0,1.08H68.11a.55.55,0,0,0,0-1.08Z"/><path class="cls-4" d="M68.11,47.68H51.66a.55.55,0,0,0,0,1.08H68.11a.55.55,0,0,0,0-1.08Z"/><path class="cls-5" d="M55.78,11.93H51.34c-.07,0-.13.25-.13.55s.06.54.13.54h4.44c.07,0,.13-.25.13-.54S55.85,11.93,55.78,11.93Z"/><path class="cls-5" d="M55.78,17H51.34c-.07,0-.13.24-.13.54s.06.54.13.54h4.44c.07,0,.13-.24.13-.54S55.85,17,55.78,17Z"/><path class="cls-5" d="M55.78,22.15H51.34c-.07,0-.13.24-.13.54s.06.54.13.54h4.44c.07,0,.13-.24.13-.54S55.85,22.15,55.78,22.15Z"/><path class="cls-5" d="M55.78,27.25H51.34c-.07,0-.13.24-.13.54s.06.55.13.55h4.44c.07,0,.13-.25.13-.55S55.85,27.25,55.78,27.25Z"/><path class="cls-5" d="M55.78,32.36H51.34c-.07,0-.13.24-.13.54s.06.54.13.54h4.44c.07,0,.13-.24.13-.54S55.85,32.36,55.78,32.36Z"/><path class="cls-5" d="M55.78,37.46H51.34c-.07,0-.13.25-.13.55s.06.54.13.54h4.44c.07,0,.13-.24.13-.54S55.85,37.46,55.78,37.46Z"/><path class="cls-5" d="M55.78,42.57H51.34c-.07,0-.13.24-.13.54s.06.54.13.54h4.44c.07,0,.13-.24.13-.54S55.85,42.57,55.78,42.57Z"/><path class="cls-5" d="M55.78,47.68H51.34c-.07,0-.13.24-.13.54s.06.54.13.54h4.44c.07,0,.13-.24.13-.54S55.85,47.68,55.78,47.68Z"/><path class="cls-6" d="M66.9,51.6H52.83a2,2,0,0,0,0,3.94H66.9a2,2,0,0,0,0-3.94Z"/><path class="cls-5" d="M62.1,35a.56.56,0,1,0,.46.56A.52.52,0,0,0,62.1,35Z"/><path class="cls-6" d="M64.25,35a.56.56,0,1,0,.46.56A.51.51,0,0,0,64.25,35Z"/><path class="cls-5" d="M66.42,35a.56.56,0,1,0,.46.56A.52.52,0,0,0,66.42,35Z"/><path class="cls-5" d="M62.09,19.66a.57.57,0,1,0,.46.56A.52.52,0,0,0,62.09,19.66Z"/><path class="cls-5" d="M64.24,19.66a.57.57,0,1,0,.47.56A.52.52,0,0,0,64.24,19.66Z"/><path class="cls-6" d="M66.41,19.66a.57.57,0,1,0,.46.56A.51.51,0,0,0,66.41,19.66Z"/><path class="cls-3" d="M66.76,57.51H53a.67.67,0,0,0,0,1.31h13.8a.67.67,0,0,0,0-1.31Z"/><rect class="cls-7" x="50.7" y="51.6" width="9.16" height="3.94"/><rect class="cls-2" x="22.42" width="24.96" height="57.25"/><rect class="cls-3" x="22.42" width="12.48" height="57.25"/><path class="cls-4" d="M44.75,2.82H25.11a.6.6,0,0,0-.54.65.6.6,0,0,0,.54.65H44.75a.61.61,0,0,0,.54-.65A.61.61,0,0,0,44.75,2.82Z"/><path class="cls-4" d="M44.75,8.92H25.11a.6.6,0,0,0-.54.65.6.6,0,0,0,.54.65H44.75a.66.66,0,0,0,0-1.3Z"/><path class="cls-4" d="M44.75,15H25.11a.66.66,0,0,0,0,1.29H44.75a.66.66,0,0,0,0-1.29Z"/><path class="cls-4" d="M44.75,21.12H25.11a.66.66,0,0,0,0,1.29H44.75a.66.66,0,0,0,0-1.29Z"/><path class="cls-4" d="M44.75,27.22H25.11a.66.66,0,0,0,0,1.29H44.75a.66.66,0,0,0,0-1.29Z"/><path class="cls-4" d="M44.75,33.31H25.11a.66.66,0,0,0,0,1.3H44.75a.66.66,0,0,0,0-1.3Z"/><path class="cls-4" d="M44.75,39.41H25.11a.66.66,0,0,0,0,1.3H44.75a.66.66,0,0,0,0-1.3Z"/><path class="cls-4" d="M44.75,45.51H25.11a.66.66,0,0,0,0,1.3H44.75a.66.66,0,0,0,0-1.3Z"/><path class="cls-5" d="M30,2.82H24.72c-.08,0-.15.29-.15.65s.07.65.15.65H30c.08,0,.14-.29.14-.65S30.11,2.82,30,2.82Z"/><path class="cls-5" d="M30,8.92H24.72c-.08,0-.15.29-.15.65s.07.65.15.65H30c.08,0,.14-.29.14-.65S30.11,8.92,30,8.92Z"/><path class="cls-5" d="M30,15H24.72c-.08,0-.15.29-.15.65s.07.64.15.64H30c.08,0,.14-.29.14-.64S30.11,15,30,15Z"/><path class="cls-5" d="M30,21.12H24.72c-.08,0-.15.29-.15.65s.07.64.15.64H30c.08,0,.14-.29.14-.64S30.11,21.12,30,21.12Z"/><path class="cls-5" d="M30,27.22H24.72c-.08,0-.15.29-.15.64s.07.65.15.65H30c.08,0,.14-.29.14-.65S30.11,27.22,30,27.22Z"/><path class="cls-5" d="M30,33.31H24.72c-.08,0-.15.29-.15.65s.07.65.15.65H30c.08,0,.14-.29.14-.65S30.11,33.31,30,33.31Z"/><path class="cls-5" d="M30,39.41H24.72c-.08,0-.15.29-.15.65s.07.65.15.65H30c.08,0,.14-.29.14-.65S30.11,39.41,30,39.41Z"/><path class="cls-5" d="M30,45.51H24.72c-.08,0-.15.29-.15.65s.07.65.15.65H30c.08,0,.14-.29.14-.65S30.11,45.51,30,45.51Z"/><path class="cls-6" d="M43.31,50.2H26.5a2.39,2.39,0,0,0,0,4.7H43.31a2.39,2.39,0,0,0,0-4.7Z"/><path class="cls-5" d="M37.57,30.39a.68.68,0,1,0,.55.67A.62.62,0,0,0,37.57,30.39Z"/><path class="cls-6" d="M40.14,30.39a.68.68,0,0,0,0,1.34.68.68,0,0,0,0-1.34Z"/><path class="cls-5" d="M42.73,30.39a.68.68,0,1,0,.55.67A.62.62,0,0,0,42.73,30.39Z"/><path class="cls-5" d="M37.56,12.05a.68.68,0,1,0,.55.67A.62.62,0,0,0,37.56,12.05Z"/><path class="cls-5" d="M40.13,12.05a.68.68,0,1,0,.55.67A.61.61,0,0,0,40.13,12.05Z"/><path class="cls-6" d="M42.72,12.05a.68.68,0,1,0,.55.67A.61.61,0,0,0,42.72,12.05Z"/><path class="cls-3" d="M43.14,57.25H26.66A.73.73,0,0,0,26,58a.72.72,0,0,0,.65.78H43.14a.72.72,0,0,0,.65-.78A.73.73,0,0,0,43.14,57.25Z"/><rect class="cls-7" x="24.57" y="50.2" width="10.33" height="5.34"/></g></g></g></svg>