<svg xmlns="http://www.w3.org/2000/svg" viewBox="0 0 22.45 52.91"><defs><style>.cls-1{isolation:isolate;}.cls-2{fill:#57667f;}.cls-3{fill:#2f3845;}.cls-4{fill:#c8b4a2;}.cls-5{fill:#ed4313;}.cls-6{fill:#8bb5f3;}.cls-7{fill:#d2e7f8;mix-blend-mode:multiply;}</style></defs><title>Asset 5</title><g class="cls-1"><g id="Layer_2" data-name="Layer 2"><g id="Background"><rect class="cls-2" width="22.45" height="51.5"/><rect class="cls-3" width="11.23" height="51.5"/><path class="cls-4" d="M20.08,2.54H2.42a.54.54,0,0,0-.49.58.54.54,0,0,0,.49.58H20.08a.53.53,0,0,0,.48-.58A.53.53,0,0,0,20.08,2.54Z"/><path class="cls-4" d="M20.08,8H2.42a.59.59,0,0,0,0,1.16H20.08a.53.53,0,0,0,.48-.58A.53.53,0,0,0,20.08,8Z"/><path class="cls-4" d="M20.08,13.51H2.42a.59.59,0,0,0,0,1.16H20.08a.59.59,0,0,0,0-1.16Z"/><path class="cls-4" d="M20.08,19H2.42a.59.59,0,0,0,0,1.16H20.08a.59.59,0,0,0,0-1.16Z"/><path class="cls-4" d="M20.08,24.48H2.42a.59.59,0,0,0,0,1.16H20.08a.59.59,0,0,0,0-1.16Z"/><path class="cls-4" d="M20.08,30H2.42a.59.59,0,0,0,0,1.16H20.08a.59.59,0,0,0,0-1.16Z"/><path class="cls-4" d="M20.08,35.45H2.42a.59.59,0,0,0,0,1.16H20.08a.59.59,0,0,0,0-1.16Z"/><path class="cls-4" d="M20.08,40.94H2.42a.59.59,0,0,0,0,1.16H20.08a.59.59,0,0,0,0-1.16Z"/><path class="cls-5" d="M6.84,2.54H2.06c-.07,0-.13.26-.13.58s.06.58.13.58H6.84c.07,0,.13-.26.13-.58S6.91,2.54,6.84,2.54Z"/><path class="cls-5" d="M6.84,8H2.06c-.07,0-.13.26-.13.58s.06.58.13.58H6.84c.07,0,.13-.26.13-.58S6.91,8,6.84,8Z"/><path class="cls-5" d="M6.84,13.51H2.06c-.07,0-.13.26-.13.58s.06.58.13.58H6.84c.07,0,.13-.26.13-.58S6.91,13.51,6.84,13.51Z"/><path class="cls-5" d="M6.84,19H2.06c-.07,0-.13.26-.13.58s.06.58.13.58H6.84c.07,0,.13-.26.13-.58S6.91,19,6.84,19Z"/><path class="cls-5" d="M6.84,24.48H2.06c-.07,0-.13.26-.13.58s.06.58.13.58H6.84c.07,0,.13-.26.13-.58S6.91,24.48,6.84,24.48Z"/><path class="cls-5" d="M6.84,30H2.06c-.07,0-.13.26-.13.58s.06.58.13.58H6.84c.07,0,.13-.26.13-.58S6.91,30,6.84,30Z"/><path class="cls-5" d="M6.84,35.45H2.06c-.07,0-.13.26-.13.58s.06.58.13.58H6.84c.07,0,.13-.26.13-.58S6.91,35.45,6.84,35.45Z"/><path class="cls-5" d="M6.84,40.94H2.06c-.07,0-.13.26-.13.58s.06.58.13.58H6.84c.07,0,.13-.26.13-.58S6.91,40.94,6.84,40.94Z"/><path class="cls-4" d="M18.78,45.15H3.67a2.15,2.15,0,0,0,0,4.23H18.78a2.15,2.15,0,0,0,0-4.23Z"/><path class="cls-5" d="M13.62,27.34a.56.56,0,0,0-.5.6.56.56,0,0,0,.5.6.56.56,0,0,0,.5-.6A.55.55,0,0,0,13.62,27.34Z"/><path class="cls-6" d="M15.94,27.34a.55.55,0,0,0-.5.6.5.5,0,1,0,1,0A.55.55,0,0,0,15.94,27.34Z"/><path class="cls-5" d="M18.26,27.34a.55.55,0,0,0-.49.6.5.5,0,1,0,1,0A.55.55,0,0,0,18.26,27.34Z"/><path class="cls-5" d="M13.61,10.84a.61.61,0,1,0,.5.6A.55.55,0,0,0,13.61,10.84Z"/><path class="cls-5" d="M15.93,10.84a.61.61,0,0,0,0,1.2.61.61,0,0,0,0-1.2Z"/><ellipse class="cls-6" cx="18.26" cy="11.44" rx="0.5" ry="0.6"/><path class="cls-3" d="M18.64,51.5H3.81a.65.65,0,0,0-.58.7.66.66,0,0,0,.58.71H18.64a.66.66,0,0,0,.58-.71A.65.65,0,0,0,18.64,51.5Z"/><rect class="cls-7" x="1.38" y="45.15" width="9.84" height="4.23"/></g></g></g></svg>