<svg xmlns="http://www.w3.org/2000/svg" viewBox="0 0 58.94 57.97"><defs><style>.cls-1{isolation:isolate;}.cls-2{fill:#e0e4ea;}.cls-3{fill:#ffffff;}.cls-4{fill:#97a2b2;}.cls-5{fill:#ffffff;opacity:1;mix-blend-mode:multiply;}</style></defs><title>Asset 1</title><g class="cls-1"><g id="Layer_2" data-name="Layer 2"><g id="Layer_1-2" data-name="Layer 1"><rect class="cls-2" x="11.61" width="2.13" height="7.29"/><rect class="cls-2" x="20.09" width="2.13" height="7.29"/><rect class="cls-2" x="28.57" width="2.13" height="7.29"/><rect class="cls-2" x="37.05" width="2.13" height="7.29"/><rect class="cls-2" x="45.53" width="2.13" height="7.29"/><rect class="cls-2" x="11.61" y="50.73" width="2.13" height="7.24"/><rect class="cls-2" x="20.09" y="50.73" width="2.13" height="7.24"/><rect class="cls-2" x="28.57" y="50.73" width="2.13" height="7.24"/><rect class="cls-2" x="37.05" y="50.73" width="2.13" height="7.24"/><rect class="cls-2" x="45.53" y="50.73" width="2.13" height="7.24"/><rect class="cls-2" y="44.83" width="7.85" height="2.13"/><rect class="cls-2" y="36.35" width="7.85" height="2.13"/><rect class="cls-2" y="27.88" width="7.85" height="2.13"/><rect class="cls-2" y="19.4" width="7.85" height="2.13"/><rect class="cls-2" y="10.92" width="7.85" height="2.13"/><rect class="cls-2" x="51.29" y="44.83" width="7.65" height="2.13"/><rect class="cls-2" x="51.29" y="36.35" width="7.65" height="2.13"/><rect class="cls-2" x="51.29" y="27.88" width="7.65" height="2.13"/><rect class="cls-2" x="51.29" y="19.4" width="7.65" height="2.13"/><rect class="cls-2" x="51.29" y="10.92" width="7.65" height="2.13"/><rect class="cls-2" x="6.82" y="6.3" width="45.3" height="45.3"/><rect class="cls-3" x="19.85" y="19.33" width="19.24" height="19.24"/><rect class="cls-4" x="10.42" y="4.25" width="4.53" height="4.62"/><rect class="cls-4" x="18.9" y="4.25" width="4.53" height="4.62"/><rect class="cls-4" x="27.33" y="4.25" width="4.53" height="4.62"/><rect class="cls-4" x="35.76" y="4.25" width="4.53" height="4.62"/><rect class="cls-4" x="44.2" y="4.25" width="4.53" height="4.62"/><rect class="cls-4" x="10.42" y="49.15" width="4.53" height="4.62"/><rect class="cls-4" x="18.9" y="49.15" width="4.53" height="4.62"/><rect class="cls-4" x="27.33" y="49.15" width="4.53" height="4.62"/><rect class="cls-4" x="35.76" y="49.15" width="4.53" height="4.62"/><rect class="cls-4" x="44.2" y="49.15" width="4.53" height="4.62"/><rect class="cls-4" x="4.81" y="43.64" width="4.62" height="4.53"/><rect class="cls-4" x="4.81" y="35.16" width="4.62" height="4.53"/><rect class="cls-4" x="4.81" y="26.72" width="4.62" height="4.53"/><rect class="cls-4" x="4.81" y="18.29" width="4.62" height="4.53"/><rect class="cls-4" x="4.81" y="9.86" width="4.62" height="4.53"/><rect class="cls-4" x="49.71" y="43.64" width="4.62" height="4.53"/><rect class="cls-4" x="49.71" y="35.16" width="4.62" height="4.53"/><rect class="cls-4" x="49.71" y="26.72" width="4.62" height="4.53"/><rect class="cls-4" x="49.71" y="18.29" width="4.62" height="4.53"/><rect class="cls-4" x="49.71" y="9.86" width="4.62" height="4.53"/></g></g></g></svg>